<svg id="Capa_1" enable-background="new 0 0 512.013 512.013" height="512" viewBox="0 0 512.013 512.013" width="512" xmlns="http://www.w3.org/2000/svg"><path d="m475.485 25.79c17.554-4.669 35.406 8.341 36.335 26.482.102 1.99.168 4.008.187 6.052l-64.333 137.349-84.209-104.79c28.623-26.228 79.141-56.347 112.02-65.093z" fill="#ffb9b4"/><path d="m390.247 122.13c28.923-25.799 77.864-54.765 110.006-63.315 3.955-1.052 7.965-1.09 11.753-.491.428 45.601-19.649 104.086-49.468 148.146z" fill="#ff9a9f"/><path d="m36.528 25.79c-17.554-4.669-35.405 8.341-36.334 26.482-.102 1.989-.168 4.006-.187 6.049-.417 45.596 30.688 85.638 60.5 129.686l88.042-97.123c-28.624-26.229-79.141-56.348-112.021-65.094z" fill="#ff9a9f"/><path d="m121.766 122.13c-28.922-25.799-77.864-54.765-110.006-63.315-3.955-1.052-7.965-1.093-11.753-.494-.429 45.6 19.648 104.089 49.468 148.149z" fill="#ff8086"/><path d="m478.795 264.263c0 56.492-21.014 108.076-55.652 147.361-40.848 46.33-100.643 72.882-167.265 72.882-123.113 0-217.372-97.131-217.372-220.244 0-66.623 23.683-126.419 70.014-167.267 39.285-34.636 90.868-55.649 147.359-55.649 123.113.001 222.916 99.804 222.916 222.917z" fill="#ffb9b4"/><path d="m354.953 371.593c0-41.038-44.357-74.305-99.074-74.305-27.443 0-52.281 8.369-70.223 21.889-17.831 13.437-21.316 31.961-21.316 52.416 0 41.038 36.822 70.664 91.539 70.664 37.347 0 69.868-11.857 86.752-34.747 7.852-10.646 12.322-22.89 12.322-35.917z" fill="#ff9a9f"/><path d="m275.782 467.276c-123.113 0-222.916-99.803-222.916-222.916 0-56.491 21.018-108.079 55.655-147.364-46.331 40.848-75.558 100.645-75.558 167.267 0 123.113 99.803 222.916 222.916 222.916 66.622 0 126.416-29.225 167.264-75.556-39.285 34.637-90.87 55.653-147.361 55.653z" fill="#ff9a9f"/><circle cx="222.854" cy="371.593" fill="#bd4150" r="16.512"/><circle cx="165.061" cy="239.494" fill="#4b3f4e" r="16.512"/><circle cx="288.904" cy="371.593" fill="#bd4150" r="16.512"/><circle cx="346.697" cy="239.494" fill="#4b3f4e" r="16.512"/><path d="m272.391 429.386c-54.717 0-99.074-33.268-99.074-74.305 0-13.025 4.489-25.26 12.339-35.904-17.83 13.436-28.851 31.962-28.851 52.417 0 41.037 44.357 74.305 99.074 74.305 37.351 0 69.869-15.495 86.752-38.388-17.942 13.52-42.795 21.875-70.24 21.875z" fill="#ff8086"/></svg>